# xmcd
#
# Track frame offsets:
#	150
#	15437
#	26692
#	38536
#	56484
#	68979
#	94424
#	112038
#	128592
#	143219
#	159957
#	173609
#	192409
#	206513
#	220494
#
# Disc length: 3127 seconds
#
# Revision: 1
# Processed by: cddbd v1.5.2PL0 Copyright (c) Steve Scherf et al.
# Submitted via: audiograbber 1.83.01
#
DISCID=ce0c350f
DTITLE=Dwight Yoakam - CB90097
DYEAR=2005
DGENRE=Karaoke
TTITLE0=Dwight Yoakam - Ain't That Lonely Yet
TTITLE1=Dwight Yoakam - Always Late
TTITLE2=Dwight Yoakam - Crazy Little Thing Called Love
TTITLE3=Dwight Yoakam - I Sang Dixie
TTITLE4=Dwight Yoakam - It Only Hurts When I Cry
TTITLE5=Dwight Yoakam - Long White Cadillac
TTITLE6=Dwight Yoakam - Please, Please Baby
TTITLE7=Dwight Yoakam - Little Ways
TTITLE8=Dwight Yoakam - Takes A Lot To Rock You
TTITLE9=Dwight Yoakam - Turn It On Turn It Up Turn Me Loose
TTITLE10=Dwight Yoakam - Honky Tonk Man
TTITLE11=Dwight Yoakam - A Thousand Miles From Nowhere
TTITLE12=Dwight Yoakam - Pocket Of A Clown
TTITLE13=Dwight Yoakam - Try Not To Look So Pretty
TTITLE14=Dwight Yoakam - What Do You Know About Love
EXTD=Chartbuster Karaoke \nCoutry Artist Series
EXTT0=
EXTT1=
EXTT2=
EXTT3=
EXTT4=
EXTT5=
EXTT6=
EXTT7=
EXTT8=
EXTT9=
EXTT10=
EXTT11=
EXTT12=
EXTT13=
EXTT14=
PLAYORDER=
